Coordinates
nRows=7
nColumns=38

# SIMM Motion File Header:
name Coordinates
datacolumns 38
datarows 7
otherdata 1
range 2.77499999999999990000 2.78100000000000010000

Units are S.I. units (second, meters, Newtons, ...)
Angles are in degrees.

endheader
time	pelvis_tilt	pelvis_list	pelvis_rotation	pelvis_tx	pelvis_ty	pelvis_tz	hip_flexion_r	hip_adduction_r	hip_rotation_r	knee_angle_r	ankle_angle_r	subtalar_angle_r	mtp_angle_r	hip_flexion_l	hip_adduction_l	hip_rotation_l	knee_angle_l	ankle_angle_l	subtalar_angle_l	mtp_angle_l	lumbar_extension	lumbar_bending	lumbar_rotation	arm_flex_r	arm_add_r	arm_rot_r	elbow_flex_r	pro_sup_r	wrist_flex_r	wrist_dev_r	arm_flex_l	arm_add_l	arm_rot_l	elbow_flex_l	pro_sup_l	wrist_flex_l	wrist_dev_l
      2.77499999999999990000	     -1.73273759675173070000	      5.75789532707432890000	      2.55065961123903500000	      0.75327385462444552000	      0.96528928270747083000	     -0.46588903713781588000	     26.39749143099229700000	     -6.11804991690458880000	     -3.81436371629880750000	    -76.74815318603529600000	     -0.53085927712240810000	      0.00000000000014890618	      0.00000000000007092760	     10.81824421856718700000	      4.97846372040586700000	     -3.08922309958218430000	    -38.43689557692810900000	     12.04088320967154500000	     -0.00000000000004823316	     -0.00000000000011377363	     -8.02499165872210970000	     -6.76217515530795050000	    -13.05545329512528400000	    -20.37545515009579600000	    -19.78465533746741300000	     15.32001888584111200000	     96.98603503896312400000	     70.55457673204979600000	      0.00000000000001872674	      0.00000000000007345021	    -12.41271086615842400000	    -37.11638655221179300000	     22.45319968139227400000	    116.47302936446685000000	     75.76687697151254500000	      0.00000000000000372446	     -0.00000000000001513282
      2.77599999999999980000	     -1.68380598889770460000	      5.72354759287020350000	      2.53001786872339140000	      0.75312820699652805000	      0.96579368464350102000	     -0.46576964554296274000	     26.43281980721343400000	     -6.06436146802334530000	     -3.82328253650656700000	    -76.50800911937206200000	     -0.48886657037432413000	      0.00000000000014921015	      0.00000000000007112099	     10.55751894276549900000	      4.93048861969867950000	     -3.07936327917746850000	    -38.24308085520237200000	     11.91574486703396500000	     -0.00000000000004843166	     -0.00000000000011424988	     -8.09988356924303690000	     -6.72149053999283910000	    -13.14419494223403900000	    -20.44648534146247300000	    -19.90355302075447600000	     15.36615376897046100000	     97.11196311084479800000	     70.47981306407633900000	      0.00000000000001877679	      0.00000000000007367807	    -12.29891575625648200000	    -37.11419147769690600000	     22.42856220424721800000	    116.57365608651203000000	     75.85546447942536500000	      0.00000000000000374564	     -0.00000000000001516730
      2.77700000000000010000	     -1.63604207469400140000	      5.68836409440732280000	      2.50983432412388960000	      0.75298910211744841000	      0.96630483071527040000	     -0.46565223531071970000	     26.46618571003707000000	     -6.01089140699153730000	     -3.83412998743038760000	    -76.26218120828995900000	     -0.44767406217512568000	      0.00000000000014951183	      0.00000000000007131468	     10.29585842604040600000	      4.88271408861756130000	     -3.06719486864568580000	    -38.04527346591582000000	     11.78743649238180600000	     -0.00000000000004867412	     -0.00000000000011463325	     -8.17233726176126220000	     -6.67928093841258620000	    -13.23270096067557200000	    -20.51769164837058300000	    -20.02360637784791900000	     15.41137866101693500000	     97.23787196909135800000	     70.41071603479106500000	      0.00000000000001882632	      0.00000000000007390416	    -12.18740234393014900000	    -37.11191961507946500000	     22.40352645507017500000	    116.67572020058201000000	     75.94223521443632300000	      0.00000000000000376621	     -0.00000000000001521298
      2.77800000000000000000	     -1.58952882192925000000	      5.65235598130407270000	      2.49011054528508020000	      0.75285651837111844000	      0.96682238006938315000	     -0.46553682735017698000	     26.49769067816613300000	     -5.95767680853778270000	     -3.84692933840588090000	    -76.01073058527318000000	     -0.40733760029817734000	      0.00000000000014981100	      0.00000000000007150832	     10.03343184947172700000	      4.83513525249974570000	     -3.05275921462362470000	    -37.84362150725932100000	     11.65592010379154300000	     -0.00000000000004893017	     -0.00000000000011500433	     -8.24225684885964500000	     -6.63556106470063600000	    -13.32094839045677200000	    -20.58909569811219200000	    -20.14476607856416700000	     15.45564556149465200000	     97.36370105762765100000	     70.34743728270622400000	      0.00000000000001887454	      0.00000000000007413059	    -12.07818528409333900000	    -37.10953728274545000000	     22.37810078304620400000	    116.77919360836967000000	     76.02708415361360000000	      0.00000000000000378533	     -0.00000000000001525573
      2.77899999999999990000	     -1.54434208606931960000	      5.61553494165564880000	      2.47084404110952650000	      0.75273043051068667000	      0.96734600163992535000	     -0.46542342547018695000	     26.52742976706900900000	     -5.90474878381312430000	     -3.86169719787949410000	    -75.75371865415394300000	     -0.36791327844352650000	      0.00000000000015011299	      0.00000000000007170186	      9.77040227238751060000	      4.78774350373972000000	     -3.03610738975884150000	    -37.63827625696391300000	     11.52115763252617200000	     -0.00000000000004919010	     -0.00000000000011537728	     -8.30955533995947700000	     -6.59034802561972820000	    -13.40891181689645300000	    -20.66071958505320800000	    -20.26698098716440900000	     15.49890683790234300000	     97.48939398704433800000	     70.29011239963716700000	      0.00000000000001892254	      0.00000000000007435342	    -11.97127849980876000000	    -37.10701356343949400000	     22.35229372365084200000	    116.88405250064670000000	     76.10989818977792300000	      0.00000000000000380433	     -0.00000000000001529610
      2.77999999999999980000	     -1.50055058714904880000	      5.57791290052373070000	      2.45203021109739220000	      0.75261080966798832000	      0.96787537464752849000	     -0.46531201912670939000	     26.55549082864071800000	     -5.85213300498660870000	     -3.87844530015645270000	    -75.49120673958376000000	     -0.32945670759117107000	      0.00000000000015041576	      0.00000000000007189458	      9.50692686514496370000	      4.74052662894784490000	     -3.01729803904305700000	    -37.42939258289527500000	     11.38311111384078900000	     -0.00000000000004945858	     -0.00000000000011579424	     -8.37415486693368830000	     -6.54366086306274490000	    -13.49656528975746600000	    -20.73258572639078100000	    -20.39019817172223600000	     15.54111550308362600000	     97.61489833831936400000	     70.23886061465800900000	      0.00000000000001896869	      0.00000000000007457376	    -11.86669516254234000000	    -37.10432054958382500000	     22.32611421591704500000	    116.99027746771985000000	     76.19055630603165200000	      0.00000000000000382303	     -0.00000000000001533878
      2.78100000000000010000	     -1.45821566242064020000	      5.53950201968266760000	      2.43366238636166710000	      0.75249762364340866000	      0.96841018916354360000	     -0.46520258322498992000	     26.58195420725321200000	     -5.79984955997616240000	     -3.89718021817065140000	    -75.22325607376734500000	     -0.29202385152314980000	      0.00000000000015071944	      0.00000000000007208658	      9.24315644575152540000	      4.69346890137656470000	     -2.99639711422221260000	    -37.21712859783247000000	     11.24174312722815500000	     -0.00000000000004973807	     -0.00000000000011623973	     -8.43598695199048980000	     -6.49552060906201150000	    -13.58388240166540200000	    -20.80471667192015400000	    -20.51436298633294800000	     15.58222548544381600000	     97.74016551378088000000	     70.19378445636957100000	      0.00000000000001901391	      0.00000000000007479502	    -11.76444763610898300000	    -37.10143353274818900000	     22.29957183609744900000	    117.09785359722741000000	     76.26892976210584200000	      0.00000000000000384095	     -0.00000000000001537167
